# xmcd CD database file
#
# Track frame offsets:
#	182
#	23775
#	42075
#	60077
#	79860
#	99007
#	123682
#	141635
#	157287
#	173872
#
# Disc length: 2526 seconds
#
# Revision: 2
# Processed by: cddbd v1.5PL3 Copyright (c) Steve Scherf et al.
# Submitted via: CDex 1.51
#
DISCID=8009dc0a
DTITLE=SAXON - Innocence Is No Excuse
DYEAR=1985
DGENRE=Hard Rock
TTITLE0=Rockin' Again
TTITLE1=Call Of The Wild
TTITLE2=Back On The Streets
TTITLE3=Devil Rides Out
TTITLE4=Rock 'N' Roll Gypsy
TTITLE5=Broken Heroes
TTITLE6=Gonna Shout
TTITLE7=Everybody Up
TTITLE8=Raise Some Hell
TTITLE9=Give It Everything You Got
EXTD=YEAR: 1985
EXTT0=
EXTT1=
EXTT2=
EXTT3=
EXTT4=
EXTT5=
EXTT6=
EXTT7=
EXTT8=
EXTT9=
PLAYORDER=
